<svg xmlns="http://www.w3.org/2000/svg" xmlns:xlink="http://www.w3.org/1999/xlink" version="1.1" x="0px" y="0px" viewBox="0 0 100 100" enable-background="new 0 0 100 100" xml:space="preserve">
	<path fill="#000000" d="M93.152,50c0,23.693-19.207,42.902-42.901,42.902C26.557,92.9,7.349,73.693,7.349,50  c0-23.693,19.208-42.901,42.901-42.901C73.945,7.099,93.152,26.306,93.152,50z M49.726,34.07c0,0,0.009-0.005,0.022-0.012  c-0.547-0.289-12.206-6.3-22.599,0.012h0.015v30.999c10.389-6.297,22.037-0.291,22.584-0.002c0.003-0.002,0.005-0.002,0.007-0.004  V34.07H49.726z M50.818,34.059c0.015,0.007,0.021,0.012,0.021,0.012h-0.016v30.994c0.646-0.34,12.244-6.269,22.592,0.017V34.07  C63.025,27.759,51.366,33.77,50.818,34.059z"/>
</svg>
